<?xml version="1.0" encoding="iso-8859-1"?>
<!-- Generator: Adobe Illustrator 18.0.0, SVG Export Plug-In . SVG Version: 6.00 Build 0)  -->
<!DOCTYPE svg PUBLIC "-//W3C//DTD SVG 1.1//EN" "http://www.w3.org/Graphics/SVG/1.1/DTD/svg11.dtd">
<svg version="1.1" id="Capa_1" xmlns="http://www.w3.org/2000/svg" xmlns:xlink="http://www.w3.org/1999/xlink" x="0px" y="0px"
	 viewBox="0 0 54 54" style="enable-background:new 0 0 54 54;" xml:space="preserve" fill="#666">
<g>
	<path fill="#666" d="M53,26H10.414l14.293-14.293c0.391-0.391,0.391-1.023,0-1.414s-1.023-0.391-1.414,0l-16,16
		c-0.092,0.092-0.165,0.203-0.216,0.325c-0.101,0.245-0.101,0.52,0,0.764c0.051,0.122,0.124,0.233,0.216,0.325l16,16
		C23.488,43.902,23.744,44,24,44s0.512-0.098,0.707-0.293c0.391-0.391,0.391-1.023,0-1.414L10.414,28H53c0.553,0,1-0.448,1-1
		S53.553,26,53,26z"/>
	<path d="M1,10c-0.552,0-1,0.448-1,1v32c0,0.552,0.448,1,1,1s1-0.448,1-1V11C2,10.448,1.552,10,1,10z"/>
</g>
<g>
</g>
<g>
</g>
<g>
</g>
<g>
</g>
<g>
</g>
<g>
</g>
<g>
</g>
<g>
</g>
<g>
</g>
<g>
</g>
<g>
</g>
<g>
</g>
<g>
</g>
<g>
</g>
<g>
</g>
</svg>
