<?xml version="1.0" encoding="iso-8859-1"?>
<!-- Generator: Adobe Illustrator 16.0.0, SVG Export Plug-In . SVG Version: 6.00 Build 0)  -->
<!DOCTYPE svg PUBLIC "-//W3C//DTD SVG 1.1//EN" "http://www.w3.org/Graphics/SVG/1.1/DTD/svg11.dtd">
<svg version="1.1" id="Capa_1" xmlns="http://www.w3.org/2000/svg" xmlns:xlink="http://www.w3.org/1999/xlink" x="0px" y="0px"
	 width="478.125px" height="478.125px" viewBox="0 0 478.125 478.125" style="enable-background:new 0 0 478.125 478.125;"
	 xml:space="preserve">
<g>
	<g>
		<polygon points="369.112,86.062 109.013,86.062 97.538,105.188 380.588,105.188 		"/>
		<polygon points="392.062,124.312 86.062,124.312 74.587,143.438 403.537,143.438 		"/>
		<polygon points="344.25,47.812 133.875,47.812 122.4,66.938 355.725,66.938 		"/>
		<path d="M382.5,9.562H95.625L0,162.562v306h478.125V172.125v-9.562L382.5,9.562z M107.1,28.688h263.925l84.149,133.875H22.95
			L107.1,28.688z M459,449.438H19.125v-267.75H459V449.438z"/>
		<path d="M191.25,353.812h95.625c21.037,0,38.25-17.213,38.25-38.25s-17.213-38.25-38.25-38.25H191.25
			c-21.038,0-38.25,17.213-38.25,38.25S170.212,353.812,191.25,353.812z M191.25,296.438h95.625c11.475,0,19.125,7.65,19.125,19.125
			s-7.65,19.125-19.125,19.125H191.25c-11.475,0-19.125-7.65-19.125-19.125S179.775,296.438,191.25,296.438z"/>
	</g>
</g>
<g>
</g>
<g>
</g>
<g>
</g>
<g>
</g>
<g>
</g>
<g>
</g>
<g>
</g>
<g>
</g>
<g>
</g>
<g>
</g>
<g>
</g>
<g>
</g>
<g>
</g>
<g>
</g>
<g>
</g>
</svg>
